<?xml version="1.0" encoding="UTF-8"?>
<svg id="Layer_1" xmlns="http://www.w3.org/2000/svg" version="1.1" viewBox="0 0 300 300">
  <!-- Generator: Adobe Illustrator 30.6.0, SVG Export Plug-In . SVG Version: 2.1.4 Build 109)  -->
  <defs>
    <style>
      .st0 {
        fill: #171717;
        fill-rule: evenodd;
      }

      .st1 {
        fill: #f4ed60;
      }
    </style>
  </defs>
  <rect class="st1" width="300" height="300"/>
  <path class="st0" d="M85.95,85.95h64.05v-47.9H38.05v111.95c0,33.21,14.46,63.04,37.43,83.54,19.79,17.67,45.9,28.4,74.52,28.4,61.83,0,111.95-50.12,111.95-111.95,0-56.34-41.62-104.12-95.79-111.95v47.65c27.56,7.15,47.9,34.5,47.9,64.3,0,17.7-7.17,33.71-18.75,45.3-11.59,11.59-27.6,18.75-45.3,18.75-35.39,0-64.05-28.66-64.05-64.05h64.05v-47.9h-64.05v-16.15Z"/>
  <path class="st0" d="M150,150"/>
  <path class="st0" d="M261.95,261.95"/>
  <polyline class="st0" points="151.58 261.95 261.95 261.95 261.95 150"/>
</svg>