<?xml version="1.0" encoding="utf-8"?>
<svg version="1.1" id="Layer_1" xmlns="http://www.w3.org/2000/svg" xmlns:xlink="http://www.w3.org/1999/xlink" x="0px" y="0px"
	 viewBox="0 0 300 100" style="enable-background:new 0 0 300 100;" xml:space="preserve">
<style type="text/css">
	.st0{fill-rule:evenodd;clip-rule:evenodd;fill:#27B07D;}
	.st1{fill:#FFFFFF;}
</style>
<path class="st0" d="M21.4,21.4H50V0L0,0l0,50c0,27.6,22.4,50,50,50c27.6,0,50-22.4,50-50c0-25.2-18.6-46-42.8-49.5v21.8
	C69.5,25.5,78.6,36.7,78.6,50c0,15.8-12.8,28.6-28.6,28.6c-15.8,0-28.6-12.8-28.6-28.6H50V39.3V28.6H21.4V21.4z"/>
<g>
	<g>
		<path class="st1" d="M113.6,30.6h28.7V39h-18.9v5.4h17.1v7.8h-17.1v5.7h19.2v8.4h-29V30.6z"/>
		<path class="st1" d="M146.5,46.1h16.7v8.5h-16.7V46.1z"/>
		<path class="st1" d="M168.4,30.6h9.9v27h17.3v8.7h-27.2V30.6z"/>
		<path class="st1" d="M198.2,52.6v-0.1c0-7.9,6.4-14.4,15.3-14.4c8.8,0,15.2,6.5,15.2,14.3v0.1c0,7.9-6.4,14.4-15.3,14.4
			C204.5,66.9,198.2,60.4,198.2,52.6z M219.2,52.6v-0.1c0-3.4-2.4-6.2-5.9-6.2c-3.5,0-5.8,2.8-5.8,6.1v0.1c0,3.4,2.4,6.2,5.9,6.2
			C217,58.7,219.2,55.9,219.2,52.6z"/>
		<path class="st1" d="M231.4,58.4v-0.1c0-5.7,4.3-8.7,10.8-8.7c2.6,0,5,0.5,6.6,1.1v-0.5c0-2.9-1.8-4.5-5.5-4.5
			c-2.9,0-5.2,0.6-7.6,1.5l-2-6.8c3.1-1.3,6.4-2.1,11.2-2.1c4.9,0,8.3,1.2,10.5,3.4c2.1,2,3,4.9,3,8.8v15.9h-9.6v-2.9
			c-1.9,2.1-4.5,3.5-8.1,3.5C235.4,66.9,231.4,63.9,231.4,58.4z M248.9,56.3V55c-1-0.4-2.3-0.7-3.8-0.7c-2.8,0-4.4,1.4-4.4,3.4v0.1
			c0,1.9,1.4,3,3.4,3C246.9,60.8,248.9,59,248.9,56.3z"/>
		<path class="st1" d="M263.3,38.7h9.7v3.9c1.8-2.3,4.3-4.5,8.3-4.5c5.9,0,9.4,3.9,9.4,10.1v18.1h-9.7V51.3c0-3-1.6-4.6-3.9-4.6
			c-2.3,0-4.1,1.6-4.1,4.6v14.9h-9.7V38.7z"/>
	</g>
</g>
</svg>
