<?xml version="1.0" encoding="UTF-8"?>
<svg id="Layer_1" xmlns="http://www.w3.org/2000/svg" version="1.1" viewBox="0 0 933.35 300">
  <!-- Generator: Adobe Illustrator 30.6.0, SVG Export Plug-In . SVG Version: 2.1.4 Build 109)  -->
  <defs>
    <style>
      .st0 {
        fill-rule: evenodd;
      }

      .st0, .st1 {
        fill: #171717;
      }

      .st2 {
        fill: #f4ed60;
      }
    </style>
  </defs>
  <path class="st0" d="M261.95,150"/>
  <g>
    <rect class="st2" width="300" height="300"/>
    <path class="st0" d="M85.95,85.95h64.05v-47.9H38.05v111.95c0,33.21,14.46,63.04,37.43,83.54,19.79,17.67,45.9,28.4,74.52,28.4,61.83,0,111.95-50.12,111.95-111.95,0-56.34-41.62-104.12-95.79-111.95v47.65c27.56,7.15,47.9,34.5,47.9,64.3,0,17.7-7.17,33.71-18.75,45.3-11.59,11.59-27.6,18.75-45.3,18.75-35.39,0-64.05-28.66-64.05-64.05h64.05v-47.9h-64.05v-16.15Z"/>
    <path class="st0" d="M150,150"/>
    <polyline class="st0" points="151.58 261.95 261.95 261.95 261.95 150"/>
  </g>
  <g>
    <path class="st1" d="M368.75,72.25h98.6v25.4h-72.4v34.8h64.2v25.4h-64.2v35.4h75.2v25.4h-101.4V72.25Z"/>
    <path class="st1" d="M492.35,162.65h37.4v22h-37.4v-22Z"/>
    <path class="st1" d="M557.35,61.65h25.4v157h-25.4V61.65Z"/>
    <path class="st1" d="M605.75,174.65c0-8.8,2.07-16.67,6.2-23.6,4.13-6.93,9.9-12.4,17.3-16.4,7.4-4,15.9-6,25.5-6s18.2,2,25.4,6c7.2,4,12.73,9.47,16.6,16.4,3.87,6.93,5.8,14.8,5.8,23.6s-1.97,16.5-5.9,23.5c-3.93,7-9.47,12.53-16.6,16.6-7.13,4.07-15.7,6.1-25.7,6.1-9.33,0-17.67-1.83-25-5.5-7.33-3.67-13.1-8.97-17.3-15.9-4.2-6.93-6.3-15.2-6.3-24.8ZM631.35,174.85c0,4.67,1,8.93,3,12.8,2,3.87,4.7,6.93,8.1,9.2,3.4,2.27,7.23,3.4,11.5,3.4,6.93,0,12.5-2.43,16.7-7.3,4.2-4.87,6.3-10.9,6.3-18.1s-2.1-13.43-6.3-18.3c-4.2-4.87-9.77-7.3-16.7-7.3-4.27,0-8.1,1.13-11.5,3.4-3.4,2.27-6.1,5.33-8.1,9.2-2,3.87-3,8.2-3,13Z"/>
    <path class="st1" d="M761.55,220.85c-8,0-15.27-1.63-21.8-4.9-6.54-3.27-11.7-8.23-15.5-14.9-3.8-6.67-5.7-15.13-5.7-25.4,0-9.73,1.97-18.1,5.9-25.1,3.93-7,9.17-12.43,15.7-16.3,6.53-3.87,13.53-5.8,21-5.8,8.4,0,14.97,1.5,19.7,4.5,4.73,3,8.5,6.43,11.3,10.3l-1.2,3.4,2.4-14.2h23.6v86.2h-25.4v-19.8l2.2,5.8c-.4.27-1.34,1.27-2.8,3-1.47,1.73-3.54,3.63-6.2,5.7-2.67,2.07-5.93,3.83-9.8,5.3-3.87,1.47-8.33,2.2-13.4,2.2ZM768.75,200.25c5.6,0,10.33-1.33,14.2-4,3.87-2.67,6.73-6.47,8.6-11.4v-20c-1.6-4.67-4.53-8.47-8.8-11.4-4.27-2.93-9.2-4.4-14.8-4.4-4.27,0-8.2,1.1-11.8,3.3-3.6,2.2-6.47,5.2-8.6,9-2.13,3.8-3.2,8.17-3.2,13.1s1.1,9.17,3.3,13.1c2.2,3.93,5.17,7.04,8.9,9.3,3.73,2.27,7.8,3.4,12.2,3.4Z"/>
    <path class="st1" d="M869.55,132.45l2.2,17-.6-2c2.93-5.6,7.27-10.13,13-13.6,5.73-3.47,12.6-5.2,20.6-5.2s14.9,2.4,20.3,7.2c5.4,4.8,8.17,11,8.3,18.6v64.2h-25.4v-55c-.13-4-1.23-7.23-3.3-9.7-2.07-2.47-5.5-3.7-10.3-3.7-6.67,0-12.07,3-16.2,9-4.13,6-6.2,13.67-6.2,23v36.4h-25.4v-86.2h23Z"/>
  </g>
</svg>