<?xml version="1.0" encoding="UTF-8"?>
<svg id="Layer_1" xmlns="http://www.w3.org/2000/svg" version="1.1" viewBox="0 0 300 300">
  <!-- Generator: Adobe Illustrator 30.6.0, SVG Export Plug-In . SVG Version: 2.1.4 Build 109)  -->
  <defs>
    <style>
      .st0 {
        fill: #fff;
      }
    </style>
  </defs>
  <path class="st0" d="M0,0v300h300V0H0ZM261.95,261.95h-110.37l.02-.02c-.53,0-1.07.02-1.6.02-28.62,0-54.73-10.74-74.52-28.4-22.97-20.5-37.43-50.33-37.43-83.54V38.05h111.95v47.9h-64.05v16.15h64.05v47.9h-64.05c0,35.39,28.66,64.05,64.05,64.05,17.69,0,33.71-7.17,45.3-18.75,11.59-11.59,18.75-27.6,18.75-45.3,0-29.81-20.34-57.15-47.9-64.3v-47.65c54.17,7.83,95.79,55.61,95.79,111.95v111.95Z"/>
</svg>